<?xml version="1.0" encoding="UTF-8"?>
<svg id="Layer_2" xmlns="http://www.w3.org/2000/svg" version="1.1" viewBox="0 0 488.2 139.2">
  <!-- Generator: Adobe Illustrator 29.8.1, SVG Export Plug-In . SVG Version: 2.1.1 Build 2)  -->
  <defs>
    <style>
      .st0 {
        fill: #bcafa8;
      }
    </style>
  </defs>
  <path d="M89.9,76.9c-6.1-.5-11.5-1.2-13.1-1.2-.2,3.7.9,17.5,1.5,19.6-17.2-2.7-47.9.5-51.7,0,.2-2.7,2.5-16.6,2.7-19-1.8.2-12.6,1.4-12.6,1.4-.3,4-2.6,28.9-2.5,31.3,29.6-4.1,47.7-3,56.1-2.9,7.4,0,15.1,1.5,21.3.7-1.3-7.4-2.3-26.4-1.7-29.8M16.7,63.7c4.4.4,10.4.7,13.2.9.3-8.1-1.1-14.7-1.7-18.8,15.3,2.3,44.9-1.3,51.3-.8-.4,1.1-2.4,15.3-2.2,18.9,2.6,0,6.7-.3,13.1-.5,0-5.4,1.6-22,1.3-31.1-32.4,5.8-69.9,2.1-77.4.8,0,0,2.7,23.4,2.5,30.7"/>
  <path class="st0" d="M64.6,85.7h3.2v-30.2h-3.2v30.2ZM57.9,85.7h3.2v-30.2h-3.2v30.2ZM51.3,85.7h3.2v-30.2h-3.2v30.2ZM44.7,85.7h3.2v-30.2h-3.2v30.2ZM38.1,85.7h3.2v-30.2h-3.2v30.2Z"/>
  <path d="M344.3,72.6l7.7-14.6,7.6,14.6h-15.3ZM375.4,84.5l-.5-.9-17.2-31.8h0c0-.1-13.4-.1-13.4-.1v.6h.2c1.2.3,2,.8,2.2,1.4.4,1-.3,2.4-1,3.8l-.2.3-13.8,25.8-.4.9c-1.6,3.2-3.1,6.2-7.4,7.8h-.1v.6h15.6v-.6h-.2c-1.5-.5-2.4-1-2.7-1.7-.4-1,.3-2.5,1.2-4.4l4.2-8.6h20.3l6.3,12.2c.1.4.1.7,0,.9-.2.6-1,1-2.7,1.6h-.2v.6h17.3v-.6h-.1c-4.2-1.7-5.8-4.7-7.5-7.8M445.1,87.5c-11.2,0-18.2-8.8-18.2-16.9s7.4-15.6,18-15.6,17.8,8.8,17.8,17-7.3,15.4-17.7,15.4M445.7,49.7h-.9c-15,0-27.1,9.7-27.1,21.5s11.7,21.7,27.1,21.7,27.3-9.7,27.3-22-11.6-21.2-26.4-21.2M159.4,49.6c-.8.3-1.7.3-2.7.3h-.9s-.9,0-.9,0h-40.3v.6h.2c4.3,1.1,4.2,4.9,4.2,7.9,0,.3,0,.6,0,.9v24.4c0,.3,0,.6,0,.8,0,2.9.1,6.8-4.2,7.8h-.2v.6h18.7v-.6h-.2c-4.1-1.1-4-4.7-3.9-7.6,0-.4,0-.7,0-1.1v-9h17.2c2.9,0,6,.1,7.3,1.7h0c0,0,.7,0,.7,0v-8.8h-.6c-1.1.4-2.6.4-4.1.4h-20.6v-11.1c3.5-.3,14.5-.4,18.8-.4s8.2.2,11.2,2.5h0s.6,0,.6,0v-9.5h-.6ZM420.2,51.3h-.7c-1.1.4-2.6.4-3.9.4h-34.7c-.3,0-.6,0-1,0-.8,0-1.6-.1-2.4-.3h-.5c0,.1-3,7.5-3,7.5v.3c-.1,0,.2,0,.2,0h.4c2.4-1.6,6-2.5,10.2-2.5h7.2v28.2c0,2.7.1,6.5-3.9,7.5h-.2v.6h18v-.6h-.2c-4-1.1-3.9-4.8-3.9-7.5v-.8s0-27.4,0-27.4h7.3c2.6,0,6.2.2,7.3,2.3h0c0,.1.6.1.6.1h0c0-.1,2.8-7.5,2.8-7.5v-.3ZM305.1,52.3h.2c4,1,3.9,4.6,3.9,7.4,0,.3,0,.6,0,.9v24.2c0,2.7.1,6.5-3.9,7.5h-.2v.6h18v-.6h-.2c-4-1.1-4-4.8-3.9-7.5v-25c0-2.7-.1-6.5,3.9-7.5h.2v-.6h-18v.6ZM277.1,73c7.2-1.3,14.4-5.4,14.4-11s-7.6-10.2-19.3-10.2h-22.2v.6h.2c4,1,3.9,4.6,3.9,7.4,0,.3,0,.6,0,.9v23.3c0,.3,0,.6,0,.9,0,2.8.2,6.4-3.9,7.4h-.2v.6h18.1v-.6h-.2c-4.1-1-4-4.6-4-7.5v-.8s0-27.5,0-27.5c2.3-.3,4.2-.4,6-.5h.6c5.5,0,11,2.3,11,6.7s-9.9,8-15.8,8.6h-.5s.3.4.3.4l8.5,8.7s6,6.6,9.2,9.4c2.7,2.4,5.8,3.2,10.8,3.2h8.5v-.4c-5.6-2.4-10.6-5.2-14.5-8.7-2.9-2.6-11.1-10.8-11.1-10.8M222.7,73c7.2-1.3,14.4-5.4,14.4-11s-7.6-10.2-19.3-10.2h-22.2v.6h.2c4,1,4,4.6,3.9,7.4,0,.3,0,.6,0,.9v23.3c0,.3,0,.6,0,.9,0,2.8.2,6.4-3.9,7.4h-.2v.6h18.1v-.6h-.2c-4.1-1-4-4.6-4-7.5v-.8s0-27.5,0-27.5c2.3-.3,4.2-.4,6-.5h.6c5.5,0,11,2.3,11,6.7s-9.9,8-15.7,8.6h-.4s.3.4.3.4l8.5,8.7s6,6.6,9.2,9.4c2.7,2.4,5.8,3.2,10.9,3.2h8.5v-.4c-5.7-2.4-10.6-5.2-14.5-8.7-2.9-2.6-11.1-10.8-11.1-10.8M167.4,52.3h.2c4,1,3.9,4.6,3.9,7.4v25.1c0,2.7.1,6.5-3.9,7.5h-.2v.6h18v-.6h-.2c-4-1.1-3.9-4.8-3.9-7.5,0-.3,0-.6,0-.8v-24.2c0-2.7-.1-6.5,3.9-7.5h.2v-.6h-18v.6Z"/>
</svg>