<?xml version="1.0" encoding="UTF-8"?>
<svg id="Layer_1" xmlns="http://www.w3.org/2000/svg" version="1.1" viewBox="0 0 48 48">
  <!-- Generator: Adobe Illustrator 29.8.1, SVG Export Plug-In . SVG Version: 2.1.1 Build 2)  -->
  <path fill="oklch(0.5471 0.2195 19.92)" d="M27,12.3c1.7-1.7,4.7-3.6,7.8-3.6s3.9,1.7,3.9,2.5c0,2.5-3.8,4.1-6.9,4.1s-3.1-.2-4.8-.6c-1,1.5-1.5,4.4-1.6,6.3,0,.6,0,1,0,1.3,0,.3.2.6.3.4.2-.3,3.1-2.9,5.4-2.9s4.3,2.1,4.3,4c0,3.7-3.3,5.6-5.3,6.8-2,1.2-6.4,3-7.3,3.4-1.5.7-1.9,1.5-1.9,2.1s.6,1.6,3,1.7c2.3.1,3.9-.7,4-.8,0,0,.3.4.2.6-.2.5-1.4,1.6-2.1,1.9-1.1.5-2.3.8-3.6.8-1.6,0-3.3-.9-3.3-2.9s.5-1.8,1.3-2.9c.2-.3.3-.4.4-1,0-1.6-4.1-2.2-6.6-3.5-.7-.3-2-1.2-2.1-2.8,0-1.4.2-3,2.2-5.1,1.9-2,4.4-2.7,5.4-2.7s2.2.5,3.3,1.5c0,.2.2,0,.2-.2s.3-3.5,2.1-6.3c-1.9-.4-5.4-1.4-8.2-1.4-4.3,0-6.7,2.8-6.6,6.5,0,.2-.4.2-.5,0-.4-.3-1-.9-1-1.6,0-.6.7-2.8,3.1-4.7,2.2-1.8,4.7-2.3,6.8-2.3s4.7.5,7.8,1.3ZM28.4,12.7c1.9.5,3.9.9,5.5.9,2.3,0,2.7-1,2.7-1.7,0-1.3-1.4-1.8-2.7-1.8s-4,.9-5.5,2.6Z"/>
</svg>