<?xml version="1.0" encoding="UTF-8"?>
<svg id="Layer_1" xmlns="http://www.w3.org/2000/svg" version="1.1" viewBox="0 0 488.2 139.2">
  <!-- Generator: Adobe Illustrator 29.8.1, SVG Export Plug-In . SVG Version: 2.1.1 Build 2)  -->
  <g id="Layer_11" data-name="Layer_1">
    <g>
      <path d="M28.1,99.8c.8-4.4,2.9-16.1,2.6-23.4-.2-7.3-.8-18.6-1.1-22.3-.4-3.7-1.6-14.1-2.2-16.5-.6-2.4-1-5.4-1.6-6.6s-.5-.9-.5-.9l-.6.2s-1,5.7-2.1,11c-1,5.2-3.1,17.5-3.1,30s1.3,16.5,1.9,20.1,3.4,12,3.4,12c0,0,.5,1.1.9,2.6.5,1.8,2.2,9.9,1.5,16.1h1.2c0,0-.7-15.3-.7-15.3.1,0-.3-2.8.4-7.1M47.1,95.9s5-22.2,4.6-33.3c-.4-11.2-1.6-26.9-3.1-35.3-1.7-8.4-3-14.2-3-14.2,0,0-.5-3.6-1.5-3.7-.9-.1-.8,1.9-1.5,4.9-.6,3-3.4,18.8-3.6,22.6-.2,4.4-.7,17.1-.5,27.4.3,10.3,3.3,21.2,3.9,23.9.6,2.7,1.7,5,2.1,6.6s1,3,1.2,4.2c.6,5.1,0,10.7,0,10.7l1.1-.3v-13.4h.2ZM79.5,65.1c-.9-11.7-3.9-29.9-3.9-29.9,0,0,0-1.3-.6-1.1-.5,0-2.5,8.6-2.7,10-.3,1.3-3.9,17.2-4.5,26.7-.6,9.5,0,12.5,0,16.1s1.6,13.1,1.9,15.2c.2,2.1,1.9,7.6,2.4,9,.7,4-.4,12.4-.4,12.4l1.2,1c0-6.9,1.2-16.8,1.6-17.7.9-2.5,4.6-13.3,5-19.3.2-5.2.9-10.5,0-22.3"/>
      <path d="M116.6,104.4v-6.5h-1.7v15.4h1.7v-6.6l.4-.4,6.3,7.1h2.4l-7.5-8.2,7.2-7.2h-2.3l-6.5,6.5h0ZM139.8,113.1h8v-1.6h-6.2v-6h6v-1.6h-6.1v-4.6h6.2v-1.6h-8v15.3h.1ZM164.8,97.9h-1.7v15.4h5.9v-1.6h-4.3v-13.8h.1ZM184.8,97.9h-1.7v15.4h5.9v-1.6h-4.3v-13.8h.1ZM203.1,113.1h8v-1.6h-6.2v-6h6v-1.6h-6v-4.6h6.2v-1.6h-8v15.3h0ZM228.1,99.4h.5c2.1,0,3.9.2,3.9,2.8s-2,2.8-3.8,2.8h-.5v-5.6h-.1,0ZM228.1,106.5h.4l4.7,6.7h2.1l-4.9-6.9c2.4-.2,3.8-1.9,3.8-4.3,0-3.4-2.7-4.3-5.6-4.3h-2.2v15.4h1.7v-6.7h0ZM249.9,113.1h8v-1.6h-6.2v-6h6v-1.6h-6v-4.6h6.2v-1.6h-8v15.3h0ZM274.9,97.9h-1.7v15.4h1.7v-15.4ZM292.5,104.9c-.6,0-1.1.5-1.1,1.1s.5,1.1,1.1,1.1,1.1-.5,1.1-1.1-.5-1.1-1.1-1.1M319.6,99.1c-1.3-1-2.9-1.5-4.6-1.5-4.4,0-8,3.6-8,8s3.6,7.9,8,7.9,3.2-.5,4.6-1.5v-2.1c-1.2,1.2-2.9,2.1-4.7,2.1-3.4,0-6.2-3-6.2-6.3s2.8-6.3,6.2-6.3,3.4.7,4.7,2.1c0,0,0-2.4,0-2.4ZM343.8,108.8l1.8,4.4h1.9l-6.9-16.1-7.1,16.1h1.9l1.9-4.4h6.5ZM343.1,107.2h-5.2l2.6-6.1,2.6,6.1ZM361.6,113.1h1.7v-11.7l11.9,12.6v-16.1h-1.7v11.8l-11.9-12.6s0,16,0,16ZM395.1,99.4h3.7v-1.6h-9.1v1.6h3.7v13.8h1.7v-13.8h0ZM414.7,97.9h-1.7v15.4h1.7v-15.4ZM430.4,113.1h1.7v-11.7l11.9,12.6v-16.1h-1.7v11.8l-11.9-12.6s0,16,0,16ZM468.5,108.8l1.8,4.4h1.9l-6.9-16.1-7.1,16.1h1.9l1.9-4.4h6.5ZM467.8,107.2h-5.2l2.6-6.1,2.6,6.1Z"/>
      <path d="M472.3,79.7c0-.3-.5-.5-1.7-.5-2.9,0-3.6-.6-3.6-2.7v-30.6c0-2.2.8-2.9,3.1-2.9s1.8,0,1.8-.4c0-.6-.2-1.8-.6-1.8h-13.6c-.4,0-.5.9-.5,1.8s.6.4,1.7.4c2.8,0,3.3.8,3.3,2.5v11.8c0,.7-.5.9-9.7.9s-10.9-.2-10.9-.9v-12.1c0-1.7.9-2.2,2.8-2.2s1.8,0,1.8-.4c0-.5-.1-1.8-.6-1.8h-13.7c-.4,0-.5,1.2-.5,1.6s.4.6,1.7.6c3,0,3.6.7,3.6,2.8v30.1c0,2.7-.6,3.3-3.5,3.3s-1.7.2-1.7.6.1,1.6.6,1.6h14c.4,0,.5-1.2.5-1.7s-.5-.5-1.8-.5c-2.5,0-3.2-.6-3.2-2.7v-14.6c0-.7.3-1,10.1-1s10.5.3,10.5,1v14.8c0,1.8-.5,2.5-3.1,2.5s-1.8,0-1.8.5.1,1.7.4,1.7h14.1c.3,0,.5-1.1.5-1.7M423.1,69.6c0-.4-.6-.5-1.8-.5s-.8,2.7-2,5.7c-1.2,3.1-3.6,4.5-8.6,4.5-10.2,0-16-7-16-18.4s6.3-18.1,15.5-18.1,6.3,1.3,7.7,2.9c2.2,2.5,2.5,6.7,3.1,6.7s1.8-.3,1.8-.6c0-.9-.5-4.7-1-8.9-.1-1-.3-1.3-.8-1.5-2-.3-4-1.2-11.1-1.2-12,0-20.7,7.9-20.7,20.8s7.6,20.9,21,20.9,9.8-1,11.1-1.3c.4,0,.8-.3.8-.7.6-4,1-8.8,1-10.2M380.9,69.9c0-12.4-19.5-12.8-19.5-21s2.4-6.1,7-6.1,5.8.8,7,4c.7,2,1,4.7,1.6,4.7,1,0,1.8-.2,1.8-.5,0-1.3-.4-4.5-.4-8.4s-.2-1-.7-1.1c-2-.4-3.8-1.3-9.6-1.3s-11.2,4.3-11.2,10.1c0,11.3,19,11.3,19,21s-2.8,8.1-8.2,8.1-7.4-2.2-8.7-6.6c-.6-2.2-.7-4-1.3-4s-1.8.3-1.8.8c0,.9.5,5.9.5,9s.2,1.1.5,1.2c2,.6,4.7,2.2,10.9,2.2s13.3-4.6,13.3-11.9M348.8,50.4c0-.9-.3-4.2-.3-8.5s-.1-1.1-.9-1.1-30.5-.2-31-.2-.6.3-.6,2.1c-.1,2.9-.5,7.1-.5,7.9s.8.6,1.7.6.9-1.9,1.6-4.5c.5-2,1.8-2.9,2.9-2.9,1.7,0,4.9-.2,7.3-.2s.6.5.6,1v30.5c0,3.4-.8,4-3.5,4s-1.8.2-1.8.5c0,.5.1,1.7.4,1.7h15.1c.3,0,.5-1.1.5-1.7s-.6-.5-2.2-.5c-2.7,0-3.5-.6-3.5-3.2v-29.4c0-2.7.2-3,.7-3,1.9,0,5.8.2,7.1.3,2,0,2.9,1.2,3.3,2.5.8,2.9,1,4.6,1.6,4.6.9,0,1.8-.3,1.8-.5M299.6,64c0,.4-.5.5-5.7.5s-5.1,0-5.1-.6.1-.8.2-1.1l4.8-13.3c.2-.5.3-.8.4-.8.2,0,.3.2.5.7l4.8,13.7c.1.4.1.7.1.9M314.5,79.7c0-.3-.3-.5-1.6-.5-2.2,0-3-.6-3.7-2.7l-12.6-35.6c-.1-.3-.8-.6-1.6-.6s-.6.3-.7.6l-13.7,35.7c-.8,2-1.7,2.7-3.8,2.7s-1.2,0-1.2.4c0,.6.1,1.8.4,1.8h11.8c.4,0,.5-1.2.5-1.7s-.6-.5-1.8-.5c-1.8,0-2.5-.3-2.5-1.2s.3-2,.5-2.7l2.4-6.9c.3-.8.8-1,6.3-1s7.6.3,7.8.8l2.6,7.6c.2.6.4,1.3.4,2.1s-.5,1.5-2.9,1.5-1.8.2-1.8.5.1,1.7.4,1.7h13.9c.5-.2.7-1.3.7-1.9M274.9,50.4c0-.9-.3-4.2-.3-8.5s-.1-1.1-.9-1.1-30.5-.2-31-.2-.6.3-.6,2.1c-.1,2.9-.5,7.1-.5,7.9s.8.6,1.7.6.9-1.9,1.6-4.5c.5-2,1.8-2.9,2.9-2.9,1.7,0,4.9-.2,7.3-.2s.6.5.6,1v30.5c0,3.4-.8,4-3.5,4s-1.8.2-1.8.5c0,.5.1,1.7.5,1.7h15.1c.3,0,.5-1.1.5-1.7s-.6-.5-2.2-.5c-2.7,0-3.5-.6-3.5-3.2v-29.4c0-2.7.2-3,.7-3,1.9,0,5.8.2,7.1.3,2,0,2.9,1.2,3.3,2.5.8,2.9,1,4.6,1.6,4.6s1.7-.3,1.7-.5M227.1,52.8c0,6.2-3.8,8.3-10.5,8.3s-2.5-.5-2.5-1.1v-13.5c0-1.7.2-2.3.4-2.5.3-.3,1.5-.5,2.9-.5,6.2,0,9.7,2.5,9.7,9.3M238.5,79.6c0-.3-.4-.4-1.2-.4-1.7,0-2.7-.4-3.8-1.8-2.7-3.4-6.2-8.3-8.8-12.7-.3-.6-.5-1-.5-1.5s.5-.8,1-1c4-1.3,7.2-4.6,7.2-10,0-8.2-5.5-11.6-14.4-11.6h-13.9c-.4,0-.5,1.1-.5,1.8s.6.4,2,.4c2.8,0,3.6.8,3.6,3.6v29c0,2.9-.7,3.6-3.4,3.6s-1.6.2-1.6.5c0,.6.1,1.7.4,1.7h14.2c.3,0,.4-1.1.4-1.7s-.4-.5-1.7-.5c-2.8,0-3.6-.6-3.6-2.5v-11.9c0-.7.6-1,2.1-1s2.7.3,3.6,2c2.7,4.9,6.6,11.1,9.6,15.1.2.3.4.5.8.5,4.2,0,7,.3,7.8.3.6,0,.8-1.3.8-1.9M196.5,42.4c0-.6-.1-1.7-.5-1.7h-12.7c-.4,0-.5,1.2-.5,1.7s.6.5,1.5.5c3.1,0,3.9.7,3.9,3.2v17.8c0,9.4-3.8,15.3-11.4,15.3s-11.5-4.5-11.5-14.1v-19.3c0-2.3.6-2.8,2.4-2.8s2-.2,2-.5-.1-1.7-.4-1.7h-13.4c-.4,0-.4,1.3-.4,1.8s.5.4,1.6.4c2.4,0,3.2.7,3.2,3.3v18.9c0,10.3,5.4,16.7,16.2,16.7s14.8-5,15.1-18.6l.2-16.7c.1-2.9.8-3.6,3.2-3.6s1.7-.2,1.7-.5M149.8,79.7c0-.3-.6-.5-1.5-.5-1.8,0-3.1-.6-4-1.8-3.8-4.4-9.4-11.3-13.3-16.4-1.2-1.7-1.6-2.3-1.6-2.7s.3-.6.6-1l11.1-11.4c2-2.1,3.6-2.9,5.7-2.9s1.6-.2,1.6-.4c0-.6-.1-1.8-.4-1.8h-12.9c-.4,0-.6,1.2-.6,1.8s.4.4,2.2.4,1.6.5,1.6,1-.5,1.3-1.6,2.5l-12,13c-.3.4-.6.6-1,.6s-.4-.3-.4-1.1v-13.5c0-2,.8-2.5,2.5-2.5s1.8,0,1.8-.5c0-.6-.2-1.6-.5-1.6-.7,0-12.5,0-13.6,0s-.5,1.2-.5,1.7.6.5,1.8.5c3.1,0,3.8.8,3.8,3.2v29.7c0,2.6-.6,3.2-3.3,3.2s-1.7.3-1.7.6c0,.5,0,1.6.5,1.6h13.7c.4,0,.5-1,.5-1.6s-.5-.6-1.8-.6c-2.4,0-3-.4-3-2.3v-11.3c0-.6,0-1.2.5-1.7l1.2-1.2c.3-.3.4-.4.7-.4s.5.3.8.6c2.7,3.9,6.9,9.3,10.2,13.3.6.7,1,1.6,1,2.1s-.6,1-2,1-1.8.2-1.8.6.1,1.6.5,1.6h14.8c.2,0,.2-1.1.2-1.7"/>
      <path d="M472.5,79.8c0-.3-.5-.5-1.7-.5-2.9,0-3.6-.6-3.6-2.8v-30.7c0-2.2.8-3,3.1-3s1.8,0,1.8-.5c0-.6-.2-1.8-.6-1.8h-13.6c-.4,0-.5.9-.5,1.8s.6.5,1.7.5c2.8,0,3.3.8,3.3,2.6v11.9c0,.7-.5.9-9.7.9s-10.9-.2-10.9-.9v-12.3c0-1.7.9-2.2,2.8-2.2s1.8,0,1.8-.5-.1-1.8-.6-1.8h-13.7c-.4,0-.5,1.2-.5,1.7s.4.6,1.7.6c3,0,3.6.7,3.6,2.8v30.3c0,2.8-.6,3.3-3.5,3.3s-1.7.2-1.7.6.1,1.7.6,1.7h14c.4,0,.5-1.2.5-1.7s-.5-.5-1.8-.5c-2.5,0-3.2-.6-3.2-2.8v-14.7c0-.7.3-1,10.1-1s10.5.3,10.5,1v15.1c0,1.8-.5,2.5-3.1,2.5s-1.8,0-1.8.5.1,1.7.4,1.7h14.1c.3,0,.5-1.1.5-1.8M423.2,69.7c0-.4-.6-.5-1.8-.5s-.8,2.7-2,5.7c-1.2,3.1-3.6,4.5-8.6,4.5-10.2,0-16-7.1-16-18.5s6.3-18.3,15.5-18.3,6.3,1.3,7.7,2.9c2.2,2.5,2.5,6.9,3.1,6.9s1.8-.3,1.8-.6c0-.9-.5-4.7-1-9-.1-1-.3-1.5-.8-1.5-2-.3-4-1.2-11.1-1.2-12,0-20.7,8-20.7,21s7.6,21.1,21.1,21.1,9.8-1,11.1-1.3c.4,0,.8-.3.8-.7.5-4.2.9-9,.9-10.3M381,70c0-12.6-19.5-12.9-19.5-21.1s2.4-6.2,7.1-6.2,5.8.8,7.1,4.2c.7,2,1,4.7,1.6,4.7,1,0,1.8-.2,1.8-.5,0-1.3-.4-4.5-.4-8.5s-.2-1-.7-1.1c-2-.4-3.8-1.3-9.6-1.3s-11.2,4.3-11.2,10.2c0,11.3,19,11.4,19,21.1s-2.8,8.1-8.2,8.1-7.4-2.2-8.7-6.7c-.6-2.2-.7-4-1.3-4s-1.8.3-1.8.8c0,.9.5,5.9.5,9.1s.2,1.1.5,1.2c2,.6,4.7,2.2,10.9,2.2,8,0,13.1-4.5,13.1-11.9M348.9,50.3c0-.9-.3-4.2-.3-8.6s-.1-1.1-.9-1.1-30.5-.2-31-.2-.6.3-.6,2.1c-.1,2.9-.5,7.2-.5,8s.8.6,1.7.6.9-1.9,1.6-4.5c.5-2,1.8-2.9,2.9-2.9,1.7,0,4.9-.2,7.3-.2s.6.5.6,1v30.8c0,3.5-.8,4-3.5,4s-1.8.2-1.8.5c0,.5.1,1.7.4,1.7h15.2c.3,0,.5-1.1.5-1.7s-.6-.5-2.2-.5c-2.7,0-3.5-.6-3.5-3.2v-29.7c0-2.7.2-3,.7-3,1.9,0,5.8.2,7.1.3,2,0,2.9,1.2,3.3,2.6.8,2.9,1,4.7,1.6,4.7.7,0,1.7-.5,1.7-.7M299.6,64.1c0,.4-.5.5-5.7.5s-5.2,0-5.2-.6.1-.8.2-1.1l4.8-13.5c.2-.5.3-.8.5-.8s.3.2.5.7l4.8,13.8c.1.4.1.7.1,1M314.5,79.8c0-.3-.3-.5-1.6-.5-2.2,0-3-.6-3.7-2.7l-12.6-35.9c-.1-.3-.8-.6-1.6-.6s-.6.3-.7.6l-13.7,36c-.8,2-1.7,2.7-3.8,2.7s-1.2,0-1.2.5c0,.6.1,1.8.4,1.8h11.8c.4,0,.5-1.2.5-1.7s-.6-.5-1.8-.5c-1.8,0-2.5-.3-2.5-1.2s.3-2,.5-2.8l2.4-7c.3-.8.8-1,6.3-1s7.6.3,7.8.8l2.6,7.6c.2.7.4,1.5.4,2.1s-.5,1.5-2.9,1.5-1.8.2-1.8.5c0,.5.1,1.7.4,1.7h13.9c.6,0,.7-1.2.7-1.8M274.8,50.3c0-.9-.3-4.2-.3-8.6s-.1-1.1-.9-1.1-30.5-.2-31-.2-.6.3-.6,2.1c-.1,2.9-.5,7.2-.5,8s.8.6,1.7.6.9-1.9,1.6-4.5c.5-2,1.8-2.9,2.9-2.9,1.7,0,4.9-.2,7.3-.2s.6.5.6,1v30.8c0,3.5-.8,4-3.5,4s-1.8.2-1.8.5c0,.5.1,1.7.5,1.7h15.1c.3,0,.5-1.1.5-1.7s-.6-.5-2.2-.5c-2.7,0-3.5-.6-3.5-3.2v-29.7c0-2.7.2-3,.7-3,1.9,0,5.8.2,7.1.3,2,0,2.9,1.2,3.3,2.6.8,2.9,1,4.7,1.6,4.7.7,0,1.7-.5,1.7-.7M227.1,52.7c0,6.3-3.8,8.4-10.5,8.4s-2.5-.5-2.5-1.1v-13.6c0-1.7.2-2.3.4-2.6.3-.3,1.5-.5,2.9-.5,6.1,0,9.7,2.6,9.7,9.4M238.5,79.8c0-.3-.4-.5-1.2-.5-1.7,0-2.7-.4-3.8-1.8-2.7-3.4-6.2-8.4-8.9-12.8-.3-.6-.5-1-.5-1.5s.5-.8,1-1c4-1.5,7.2-4.7,7.2-10.1,0-8.3-5.5-11.7-14.4-11.7h-13.9c-.4,0-.5,1.1-.5,1.8s.6.5,2,.5c2.8,0,3.6.8,3.6,3.6v29.3c0,2.9-.7,3.6-3.4,3.6s-1.6.2-1.6.5c0,.6.1,1.7.4,1.7h14.3c.3,0,.4-1.1.4-1.7s-.4-.5-1.7-.5c-2.8,0-3.6-.6-3.6-2.6v-12c0-.7.6-1,2.1-1s2.7.3,3.6,2c2.7,4.9,6.6,11.2,9.6,15.2.2.3.5.5.8.5,4.2,0,7.1.3,7.8.3s.8-1.2.8-1.8M196.4,42.2c0-.6-.1-1.7-.5-1.7h-12.7c-.4,0-.5,1.2-.5,1.7s.6.5,1.5.5c3.1,0,3.9.7,3.9,3.3v17.9c0,9.6-3.8,15.4-11.5,15.4s-11.5-4.5-11.5-14.2v-19.5c0-2.3.6-2.8,2.4-2.8s2-.2,2-.5-.1-1.7-.4-1.7h-13.4c-.4,0-.4,1.3-.4,1.8s.5.5,1.6.5c2.4,0,3.3.7,3.3,3.3v19c0,10.4,5.4,16.9,16.2,16.9s14.8-5,15.1-18.7l.2-16.9c.1-2.9.8-3.7,3.3-3.7s1.6,0,1.6-.5M149.7,79.8c0-.3-.6-.5-1.5-.5-1.8,0-3.1-.6-4-1.9-3.8-4.5-9.4-11.3-13.3-16.5-1.2-1.7-1.6-2.3-1.6-2.7s.3-.6.6-1l11.1-11.5c2-2.1,3.6-2.9,5.7-2.9s1.6-.2,1.6-.5c0-.7-.1-1.8-.4-1.8h-12.9c-.4,0-.6,1.2-.6,1.8s.4.5,2.2.5,1.6.5,1.6,1-.5,1.3-1.6,2.5l-12,13.1c-.3.4-.6.6-1,.6s-.4-.3-.4-1.1v-13.5c0-2,.8-2.6,2.5-2.6s1.8,0,1.8-.5c0-.6-.2-1.7-.5-1.7-.7,0-12.5,0-13.6,0s-.5,1.2-.5,1.7.6.5,1.8.5c3.1,0,3.8.8,3.8,3.3v30c0,2.6-.6,3.2-3.3,3.2s-1.7.3-1.7.6c0,.5,0,1.7.5,1.7h13.7c.4,0,.5-1,.5-1.7s-.5-.6-1.8-.6c-2.4,0-3-.5-3-2.4v-11.4c0-.6,0-1.2.5-1.7l1.2-1.2c.3-.3.4-.4.7-.4s.5.3.8.6c2.7,3.9,6.9,9.4,10.2,13.4.6.7,1,1.6,1,2.1s-.6,1-2,1-1.8.2-1.8.6.1,1.7.5,1.7h14.8c.1,0,.2-1.1.2-1.7"/>
    </g>
  </g>
</svg>