<?xml version="1.0" encoding="UTF-8"?>
<svg id="Layer_1" xmlns="http://www.w3.org/2000/svg" version="1.1" viewBox="0 0 712.2 121.5">
  <!-- Generator: Adobe Illustrator 29.8.1, SVG Export Plug-In . SVG Version: 2.1.1 Build 2)  -->
  <path d="M644.1,12.7c47.9-3.7,76.5,52.7,39.5,85.5-24.8,22-64.5,15.2-80.1-14-16.5-31.1,6.2-68.7,40.6-71.4ZM645.2,25.1c-22.4,1.9-37,24.5-31.7,45.9,6.2,25.2,36.8,36.4,57.7,20.5,29.5-22.4,11.8-69.7-25.9-66.5Z"/>
  <polygon points="415.9 14.6 415.9 26.7 360.6 26.7 360.6 74.1 407.2 74.1 407.2 86.5 360.6 86.5 360.6 96.9 415.9 96.9 415.9 108.9 346.8 108.9 346.8 14.6 415.9 14.6"/>
  <path d="M25.3,87.7v21.3h-13.5V14.6h39c33.3,2.8,47,45.3,19.2,65.5-13.6,9.9-28.9,7.2-44.7,7.5ZM25.3,75.3h24.9c.5,0,2.5-.6,3.2-.8,22.3-6,22.8-39.9.9-46.7-.9-.3-3.7-1.1-4.4-1.1h-24.6v48.6Z"/>
  <polygon points="252.4 14.6 194.3 96.9 247.5 96.9 247.5 108.9 170.1 108.9 227.9 26.7 174.7 26.7 174.7 14.6 252.4 14.6"/>
  <polygon points="337.9 14.6 279.7 96.9 333 96.9 333 108.9 255.6 108.9 313.4 26.7 260.2 26.7 260.2 14.6 337.9 14.6"/>
  <path d="M162.3,108.9h-14.5l-4.9-11.8-.8-.3h-43.1c0,0-5.2,12.1-5.2,12.1h-14.5L120.6,10.3l41.7,98.6ZM137.9,84.8l-17.1-42.6-17.1,42.6h34.2Z"/>
  <path d="M455.5,12.7c12.2-1,23.4,3.2,31.4,12.4l-8.5,9.4c-6.9-6.7-13.9-11.2-24-9s-14,17-2.5,22.9c14.3,7.4,36.5,6.6,40.6,26.7,3.1,15.1-3.7,28.7-18.4,33.8s-35.9-.5-48.7-13.6l9.1-9.4c8.2,7.2,17.4,14.4,29,12.6,7.4-1.1,13.7-5.4,15.1-13.1,1.7-9.6-3.5-14.4-11.5-17.9-12.2-5.4-31.5-7-36-22.1-5.1-17.3,7.6-31.3,24.5-32.7Z"/>
  <path d="M587.3,95.3c.5.5,2,1.6,1.7,2.2s-3.4,2.9-3.9,3.3c-23.2,17.6-56.8,12.4-73.6-11.2-15.7-22.1-9.9-51.3,11.7-67,20-14.5,48.1-13,66,4.1l-9.3,9.3c-16.4-17.2-45.1-13.7-57.4,6.5-7.3,12.1-7.1,27.5.4,39.5,12.5,19.7,40.6,22.8,57,6.1,2.4,2.5,5,4.9,7.5,7.3Z"/>
</svg>